<mxfile host="65bd71144e">
    <diagram id="gyh-bxle0GVReEllLwfO" name="ページ1">
        <mxGraphModel dx="1806" dy="424" grid="1" gridSize="10" guides="1" tooltips="1" connect="1" arrows="1" fold="1" page="1" pageScale="1" pageWidth="827" pageHeight="1169" math="0" shadow="0">
            <root>
                <mxCell id="0"/>
                <mxCell id="1" parent="0"/>
                <mxCell id="8" value="alt" style="shape=umlFrame;whiteSpace=wrap;html=1;width=40;height=20;boundedLbl=1;verticalAlign=middle;align=left;spacingLeft=5;" vertex="1" parent="1">
                    <mxGeometry x="220" y="130" width="440" height="510" as="geometry"/>
                </mxCell>
                <mxCell id="2" value="calclate" style="shape=umlLifeline;perimeter=lifelinePerimeter;whiteSpace=wrap;html=1;container=1;collapsible=0;recursiveResize=0;outlineConnect=0;" vertex="1" parent="1">
                    <mxGeometry x="220" y="10" width="140" height="680" as="geometry"/>
                </mxCell>
                <mxCell id="3" value="" style="html=1;points=[];perimeter=orthogonalPerimeter;fillColor=#808080;" vertex="1" parent="2">
                    <mxGeometry x="45" y="90" width="10" height="510" as="geometry"/>
                </mxCell>
                <mxCell id="22" value="handleNumberButton(pushButton:string,state:State)" style="text;html=1;align=center;verticalAlign=middle;resizable=0;points=[];autosize=1;strokeColor=none;fillColor=none;" vertex="1" parent="2">
                    <mxGeometry x="70" y="130" width="290" height="20" as="geometry"/>
                </mxCell>
                <mxCell id="28" value="[pushButton=.]" style="text;html=1;align=center;verticalAlign=middle;resizable=0;points=[];autosize=1;fontColor=#FFFFFF;" vertex="1" parent="2">
                    <mxGeometry x="5" y="250" width="90" height="20" as="geometry"/>
                </mxCell>
                <mxCell id="32" value="[pushButton=D]" style="text;html=1;align=center;verticalAlign=middle;resizable=0;points=[];autosize=1;fontColor=#FFFFFF;" vertex="1" parent="2">
                    <mxGeometry y="330" width="100" height="20" as="geometry"/>
                </mxCell>
                <mxCell id="67" value="" style="endArrow=open;startArrow=none;endFill=0;startFill=0;endSize=8;html=1;verticalAlign=bottom;labelBackgroundColor=none;strokeWidth=1;entryX=1.256;entryY=0.306;entryDx=0;entryDy=0;entryPerimeter=0;" edge="1" parent="2">
                    <mxGeometry width="160" relative="1" as="geometry">
                        <mxPoint x="55" y="150" as="sourcePoint"/>
                        <mxPoint x="57.559999999999945" y="166.06000000000006" as="targetPoint"/>
                        <Array as="points">
                            <mxPoint x="100" y="150"/>
                            <mxPoint x="100" y="166"/>
                        </Array>
                    </mxGeometry>
                </mxCell>
                <mxCell id="26" value="" style="endArrow=open;startArrow=none;endFill=0;startFill=0;endSize=8;html=1;verticalAlign=bottom;labelBackgroundColor=none;strokeWidth=1;entryX=1.256;entryY=0.306;entryDx=0;entryDy=0;entryPerimeter=0;" edge="1" parent="2" target="3">
                    <mxGeometry width="160" relative="1" as="geometry">
                        <mxPoint x="55" y="230" as="sourcePoint"/>
                        <mxPoint x="190" y="260" as="targetPoint"/>
                        <Array as="points">
                            <mxPoint x="100" y="230"/>
                            <mxPoint x="100" y="246"/>
                        </Array>
                    </mxGeometry>
                </mxCell>
                <mxCell id="71" value="" style="endArrow=open;startArrow=none;endFill=0;startFill=0;endSize=8;html=1;verticalAlign=bottom;labelBackgroundColor=none;strokeWidth=1;entryX=1.256;entryY=0.306;entryDx=0;entryDy=0;entryPerimeter=0;" edge="1" parent="2">
                    <mxGeometry width="160" relative="1" as="geometry">
                        <mxPoint x="55" y="300" as="sourcePoint"/>
                        <mxPoint x="57.559999999999945" y="316.06000000000006" as="targetPoint"/>
                        <Array as="points">
                            <mxPoint x="100" y="300"/>
                            <mxPoint x="100" y="316"/>
                        </Array>
                    </mxGeometry>
                </mxCell>
                <mxCell id="75" value="" style="endArrow=open;startArrow=none;endFill=0;startFill=0;endSize=8;html=1;verticalAlign=bottom;labelBackgroundColor=none;strokeWidth=1;entryX=1.256;entryY=0.306;entryDx=0;entryDy=0;entryPerimeter=0;" edge="1" parent="2">
                    <mxGeometry width="160" relative="1" as="geometry">
                        <mxPoint x="55" y="370" as="sourcePoint"/>
                        <mxPoint x="57.559999999999945" y="386.06000000000006" as="targetPoint"/>
                        <Array as="points">
                            <mxPoint x="100" y="370"/>
                            <mxPoint x="100" y="386"/>
                        </Array>
                    </mxGeometry>
                </mxCell>
                <mxCell id="11" value="[pushButton=数値]" style="text;html=1;align=center;verticalAlign=middle;resizable=0;points=[];autosize=1;fontColor=#FFFFFF;" vertex="1" parent="2">
                    <mxGeometry x="30" y="120" width="110" height="20" as="geometry"/>
                </mxCell>
                <mxCell id="4" value="ユーザ" style="shape=umlLifeline;perimeter=lifelinePerimeter;whiteSpace=wrap;html=1;container=1;collapsible=0;recursiveResize=0;outlineConnect=0;" vertex="1" parent="1">
                    <mxGeometry x="-130" y="10" width="100" height="460" as="geometry"/>
                </mxCell>
                <mxCell id="5" value="" style="html=1;points=[];perimeter=orthogonalPerimeter;" vertex="1" parent="4">
                    <mxGeometry x="45" y="90" width="10" height="370" as="geometry"/>
                </mxCell>
                <mxCell id="6" value="" style="endArrow=open;startArrow=none;endFill=0;startFill=0;endSize=8;html=1;verticalAlign=bottom;labelBackgroundColor=none;strokeWidth=1;" edge="1" parent="4">
                    <mxGeometry width="160" relative="1" as="geometry">
                        <mxPoint x="55" y="100" as="sourcePoint"/>
                        <mxPoint x="215" y="100" as="targetPoint"/>
                    </mxGeometry>
                </mxCell>
                <mxCell id="7" value="pushButton:string" style="text;html=1;align=center;verticalAlign=middle;resizable=0;points=[];autosize=1;strokeColor=none;fillColor=none;" vertex="1" parent="1">
                    <mxGeometry x="-55" y="90" width="110" height="20" as="geometry"/>
                </mxCell>
                <mxCell id="12" value="[pushButton=+,-]" style="text;html=1;align=center;verticalAlign=middle;resizable=0;points=[];autosize=1;fontColor=#FFFFFF;" vertex="1" parent="1">
                    <mxGeometry x="220" y="190" width="100" height="20" as="geometry"/>
                </mxCell>
                <mxCell id="29" value="handleDotButton(state:State)" style="text;html=1;align=center;verticalAlign=middle;resizable=0;points=[];autosize=1;strokeColor=none;fillColor=none;" vertex="1" parent="1">
                    <mxGeometry x="285" y="279.65" width="170" height="20" as="geometry"/>
                </mxCell>
                <mxCell id="33" value="handleDotButton(state:State)" style="text;html=1;align=center;verticalAlign=middle;resizable=0;points=[];autosize=1;strokeColor=none;fillColor=none;" vertex="1" parent="1">
                    <mxGeometry x="280" y="360" width="170" height="20" as="geometry"/>
                </mxCell>
                <mxCell id="35" value="[pushButton=AC]" style="text;html=1;align=center;verticalAlign=middle;resizable=0;points=[];autosize=1;fontColor=#FFFFFF;" vertex="1" parent="1">
                    <mxGeometry x="215" y="420" width="110" height="20" as="geometry"/>
                </mxCell>
                <mxCell id="36" value="handleAllClearButton(state:State)" style="text;html=1;align=center;verticalAlign=middle;resizable=0;points=[];autosize=1;strokeColor=none;fillColor=none;" vertex="1" parent="1">
                    <mxGeometry x="280" y="440" width="190" height="20" as="geometry"/>
                </mxCell>
                <mxCell id="38" value="[pushButton=&quot;=&quot;]" style="text;html=1;align=center;verticalAlign=middle;resizable=0;points=[];autosize=1;fontColor=#FFFFFF;" vertex="1" parent="1">
                    <mxGeometry x="215" y="520" width="110" height="20" as="geometry"/>
                </mxCell>
                <mxCell id="39" value="handleEqualButton(state:State)" style="text;html=1;align=center;verticalAlign=middle;resizable=0;points=[];autosize=1;strokeColor=none;fillColor=none;" vertex="1" parent="1">
                    <mxGeometry x="275" y="550" width="180" height="20" as="geometry"/>
                </mxCell>
                <mxCell id="54" value="Button" style="shape=umlLifeline;perimeter=lifelinePerimeter;whiteSpace=wrap;html=1;container=1;collapsible=0;recursiveResize=0;outlineConnect=0;" vertex="1" parent="1">
                    <mxGeometry x="40" y="10" width="100" height="720" as="geometry"/>
                </mxCell>
                <mxCell id="55" value="" style="html=1;points=[];perimeter=orthogonalPerimeter;" vertex="1" parent="54">
                    <mxGeometry x="45" y="90" width="10" height="630" as="geometry"/>
                </mxCell>
                <mxCell id="57" value="" style="endArrow=open;startArrow=none;endFill=0;startFill=0;endSize=8;html=1;verticalAlign=bottom;labelBackgroundColor=none;strokeWidth=1;" edge="1" parent="1">
                    <mxGeometry width="160" relative="1" as="geometry">
                        <mxPoint x="90" y="120" as="sourcePoint"/>
                        <mxPoint x="250" y="120" as="targetPoint"/>
                    </mxGeometry>
                </mxCell>
                <mxCell id="58" value="calclate(pushButton:string,&lt;br&gt;state:State)" style="text;html=1;align=center;verticalAlign=middle;resizable=0;points=[];autosize=1;strokeColor=none;fillColor=none;fontColor=#FFFFFF;" vertex="1" parent="1">
                    <mxGeometry x="95" y="85" width="160" height="30" as="geometry"/>
                </mxCell>
                <mxCell id="61" value="" style="endArrow=block;startArrow=none;endFill=0;startFill=0;endSize=8;html=1;verticalAlign=bottom;dashed=1;labelBackgroundColor=none;fontColor=#FFFFFF;" edge="1" parent="1">
                    <mxGeometry width="160" relative="1" as="geometry">
                        <mxPoint x="260" y="160" as="sourcePoint"/>
                        <mxPoint x="100" y="160" as="targetPoint"/>
                        <Array as="points">
                            <mxPoint x="200" y="160"/>
                        </Array>
                    </mxGeometry>
                </mxCell>
                <mxCell id="62" value="state:State" style="text;html=1;align=center;verticalAlign=middle;resizable=0;points=[];autosize=1;strokeColor=none;fillColor=none;fontColor=#FFFFFF;" vertex="1" parent="1">
                    <mxGeometry x="140" y="140" width="70" height="20" as="geometry"/>
                </mxCell>
                <mxCell id="25" value="handleOperatorButton(pushButton:string,state:State)" style="text;html=1;align=center;verticalAlign=middle;resizable=0;points=[];autosize=1;strokeColor=none;fillColor=none;" vertex="1" parent="1">
                    <mxGeometry x="280" y="210" width="300" height="20" as="geometry"/>
                </mxCell>
                <mxCell id="73" value="" style="endArrow=open;startArrow=none;endFill=0;startFill=0;endSize=8;html=1;verticalAlign=bottom;labelBackgroundColor=none;strokeWidth=1;entryX=1.256;entryY=0.306;entryDx=0;entryDy=0;entryPerimeter=0;" edge="1" parent="1">
                    <mxGeometry width="160" relative="1" as="geometry">
                        <mxPoint x="275" y="568" as="sourcePoint"/>
                        <mxPoint x="277.55999999999995" y="584.0600000000001" as="targetPoint"/>
                        <Array as="points">
                            <mxPoint x="320" y="568"/>
                            <mxPoint x="320" y="584"/>
                        </Array>
                    </mxGeometry>
                </mxCell>
                <mxCell id="74" value="" style="endArrow=open;startArrow=none;endFill=0;startFill=0;endSize=8;html=1;verticalAlign=bottom;labelBackgroundColor=none;strokeWidth=1;entryX=1.256;entryY=0.306;entryDx=0;entryDy=0;entryPerimeter=0;" edge="1" parent="1">
                    <mxGeometry width="160" relative="1" as="geometry">
                        <mxPoint x="275" y="460" as="sourcePoint"/>
                        <mxPoint x="277.55999999999995" y="476.06000000000006" as="targetPoint"/>
                        <Array as="points">
                            <mxPoint x="320" y="460"/>
                            <mxPoint x="320" y="476"/>
                        </Array>
                    </mxGeometry>
                </mxCell>
                <mxCell id="76" value="Display" style="shape=umlLifeline;perimeter=lifelinePerimeter;whiteSpace=wrap;html=1;container=1;collapsible=0;recursiveResize=0;outlineConnect=0;" vertex="1" parent="1">
                    <mxGeometry x="660" width="100" height="770" as="geometry"/>
                </mxCell>
                <mxCell id="77" value="" style="html=1;points=[];perimeter=orthogonalPerimeter;fillColor=#808080;" vertex="1" parent="76">
                    <mxGeometry x="45" y="90" width="10" height="680" as="geometry"/>
                </mxCell>
                <mxCell id="91" value="" style="html=1;verticalAlign=bottom;labelBackgroundColor=none;endArrow=block;endFill=1;endSize=6;align=left;fontColor=#FFFFFF;" edge="1" parent="1">
                    <mxGeometry x="-1" relative="1" as="geometry">
                        <mxPoint x="95" y="710" as="sourcePoint"/>
                        <mxPoint x="710" y="710" as="targetPoint"/>
                    </mxGeometry>
                </mxCell>
                <mxCell id="93" value="&amp;lt;Display current(state:State))" style="edgeLabel;html=1;align=center;verticalAlign=middle;resizable=0;points=[];fontColor=#FFFFFF;" vertex="1" connectable="0" parent="91">
                    <mxGeometry x="-0.1978" y="6" relative="1" as="geometry">
                        <mxPoint x="18" y="-4" as="offset"/>
                    </mxGeometry>
                </mxCell>
                <mxCell id="94" value="Actor" style="shape=umlActor;verticalLabelPosition=bottom;verticalAlign=top;html=1;fontColor=#FFFFFF;" vertex="1" parent="1">
                    <mxGeometry x="-160" y="55" width="30" height="60" as="geometry"/>
                </mxCell>
                <mxCell id="95" value="" style="html=1;verticalAlign=bottom;labelBackgroundColor=none;endArrow=open;endFill=0;dashed=1;fontColor=#FFFFFF;" edge="1" parent="1" source="54" target="4">
                    <mxGeometry width="160" relative="1" as="geometry">
                        <mxPoint x="80" y="200" as="sourcePoint"/>
                        <mxPoint x="240" y="200" as="targetPoint"/>
                        <Array as="points">
                            <mxPoint x="50" y="320"/>
                        </Array>
                    </mxGeometry>
                </mxCell>
                <mxCell id="97" value="初期画面" style="text;html=1;align=center;verticalAlign=middle;resizable=0;points=[];autosize=1;strokeColor=none;fillColor=none;fontColor=#FFFFFF;" vertex="1" parent="1">
                    <mxGeometry x="-30" y="290" width="60" height="20" as="geometry"/>
                </mxCell>
            </root>
        </mxGraphModel>
    </diagram>
</mxfile>